<?xml version="1.0" standalone="no"?>
<!DOCTYPE svg PUBLIC "-//W3C//DTD SVG 20010904//EN"
 "http://www.w3.org/TR/2001/REC-SVG-20010904/DTD/svg10.dtd">
<svg version="1.0" xmlns="http://www.w3.org/2000/svg"
 width="728.000000pt" height="728.000000pt" viewBox="0 0 728.000000 728.000000"
 preserveAspectRatio="xMidYMid meet">
<metadata>
Created by potrace 1.11, written by Peter Selinger 2001-2013
</metadata>
<g transform="translate(0.000000,728.000000) scale(0.100000,-0.100000)"
fill="#000000" stroke="none">
<path d="M2882 6167 c-414 -447 -767 -833 -783 -858 -106 -156 -153 -347 -130
-525 27 -197 91 -317 281 -521 74 -80 154 -167 176 -192 44 -48 72 -51 37 -3
-137 185 -149 452 -29 656 15 25 293 334 618 687 l591 640 33 -33 c18 -18 286
-309 597 -646 498 -540 569 -621 601 -685 96 -194 86 -403 -29 -588 -20 -33
-34 -63 -31 -66 6 -6 93 84 269 276 172 188 241 350 239 566 0 125 -23 226
-72 329 -52 110 -70 131 -555 651 -61 66 -320 345 -575 620 -255 275 -468 501
-474 502 -6 2 -350 -363 -764 -810z"/>
<path d="M3579 5033 c-24 -27 -77 -84 -118 -128 -41 -44 -98 -105 -126 -135
-28 -30 -135 -146 -239 -258 -104 -111 -200 -217 -213 -234 -63 -86 -82 -237
-44 -338 26 -67 56 -107 207 -267 72 -76 230 -245 353 -375 122 -131 226 -238
230 -238 4 0 32 26 62 58 82 87 293 314 320 343 13 15 83 89 155 165 196 206
201 214 237 284 29 58 32 73 32 155 0 80 -3 97 -31 155 -17 36 -45 79 -61 95
-15 17 -112 120 -213 230 -273 294 -494 530 -500 533 -4 1 -26 -19 -51 -45z"/>
<path d="M1244 3386 c-239 -54 -445 -226 -538 -448 -14 -35 -150 -463 -301
-953 -152 -490 -297 -956 -322 -1038 -28 -88 -43 -151 -37 -156 5 -4 486 -117
1069 -251 1015 -233 1065 -244 1182 -248 158 -5 242 13 373 79 158 81 285 214
354 372 31 68 159 488 151 495 -6 7 -6 8 -45 -63 -19 -33 -65 -92 -104 -130
-116 -116 -255 -175 -413 -175 -74 0 -77 1 -1425 307 -188 43 -338 82 -338 88
0 9 169 552 438 1411 88 281 107 318 207 419 123 123 246 175 417 175 48 0 88
4 88 9 0 5 -53 21 -117 36 -65 15 -163 38 -218 52 -123 32 -324 41 -421 19z"/>
<path d="M5710 3393 c-14 -3 -128 -29 -254 -59 -126 -30 -231 -54 -233 -54 -1
0 -3 -3 -3 -7 0 -5 57 -8 128 -8 106 0 137 -4 190 -23 137 -49 264 -157 329
-277 28 -53 110 -305 368 -1135 41 -129 97 -310 126 -402 29 -93 51 -170 48
-172 -2 -2 -375 -88 -829 -192 -815 -186 -826 -189 -940 -188 -98 0 -125 3
-186 25 -129 47 -244 141 -315 259 -21 34 -40 67 -42 73 -2 7 -8 9 -12 5 -10
-9 128 -454 161 -521 76 -151 196 -272 345 -347 132 -66 216 -83 372 -78 111
4 160 13 542 102 521 121 964 222 1380 317 176 40 324 76 329 80 7 6 -70 262
-445 1469 -230 738 -218 705 -290 812 -105 154 -285 275 -468 314 -62 13 -245
17 -301 7z"/>
<path d="M2223 2996 c-61 -20 -106 -50 -162 -112 -44 -48 -55 -69 -90 -177
-92 -288 -293 -948 -289 -952 3 -3 240 -59 529 -126 468 -108 531 -120 595
-117 119 8 219 66 282 166 22 33 72 183 176 522 174 571 170 559 165 565 -3 2
-236 58 -518 125 -540 126 -594 135 -688 106z"/>
<path d="M4345 2890 c-275 -65 -505 -120 -512 -122 -15 -4 296 -1023 330
-1081 59 -100 173 -169 292 -175 61 -3 134 11 594 117 289 67 527 123 529 125
6 7 -309 1018 -330 1060 -31 61 -105 133 -167 163 -46 22 -72 27 -146 29 -85
3 -118 -3 -590 -116z"/>
</g>
</svg>
